<svg width="30" height="30" fill="none" xmlns="http://www.w3.org/2000/svg"><path d="M26.484 2.344h-1.406V0h-2.344v2.344H7.266V0H4.922v2.344H3.516A3.52 3.52 0 0 0 0 5.859v20.625A3.52 3.52 0 0 0 3.516 30h22.968A3.52 3.52 0 0 0 30 26.484V5.86a3.52 3.52 0 0 0-3.516-3.515Zm1.172 24.14c0 .646-.525 1.172-1.172 1.172H3.516a1.173 1.173 0 0 1-1.172-1.172V11.016h25.312v15.468Zm0-17.812H2.344V5.859c0-.646.525-1.171 1.172-1.171h1.406V7.03h2.344V4.688h15.468V7.03h2.344V4.688h1.406c.646 0 1.172.525 1.172 1.171v2.813Z" fill="#000"/><path d="M6.797 13.477H4.453v2.343h2.344v-2.343ZM11.484 13.477H9.141v2.343h2.343v-2.343ZM16.172 13.477h-2.344v2.343h2.344v-2.343ZM20.86 13.477h-2.344v2.343h2.343v-2.343ZM25.547 13.477h-2.344v2.343h2.344v-2.343ZM6.797 18.164H4.453v2.344h2.344v-2.344ZM11.484 18.164H9.141v2.344h2.343v-2.344ZM16.172 18.164h-2.344v2.344h2.344v-2.344ZM20.86 18.164h-2.344v2.344h2.343v-2.344ZM6.797 22.852H4.453v2.343h2.344v-2.343ZM11.484 22.852H9.141v2.343h2.343v-2.343ZM16.172 22.852h-2.344v2.343h2.344v-2.343ZM20.86 22.852h-2.344v2.343h2.343v-2.343ZM25.547 18.164h-2.344v2.344h2.344v-2.344Z" fill="#000"/></svg>